<?xml version="1.0" encoding="UTF-8"?>
<svg version="1.1" xmlns="http://www.w3.org/2000/svg" width="1549" height="1549">
<path d="M0 0 C1.59328234 -0.00702281 3.1865644 -0.01410962 4.77984619 -0.02125549 C9.84151619 -0.04064767 14.90314034 -0.04568949 19.96484375 -0.046875 C21.2587031 -0.04753778 21.2587031 -0.04753778 22.57870102 -0.04821396 C47.70432833 -0.05496383 72.68486242 0.10989192 97.67950439 2.953125 C100.01038055 3.21527577 102.34251634 3.46239814 104.67529297 3.70703125 C143.95920554 7.86648999 182.71935176 15.10060698 220.90234375 25.203125 C222.13227051 25.52748535 223.36219727 25.8518457 224.62939453 26.18603516 C285.89323598 42.5643375 345.79011902 66.77907483 400.90234375 98.203125 C401.96211426 98.80108887 403.02188477 99.39905273 404.11376953 100.01513672 C418.87609143 108.36969552 433.23611403 117.21402855 447.33984375 126.640625 C448.01995514 127.09507996 448.70006653 127.54953491 449.40078735 128.01776123 C461.44830695 136.08893923 473.32185004 144.40988897 484.90234375 153.140625 C485.56258545 153.63731689 486.22282715 154.13400879 486.90307617 154.64575195 C505.16805051 168.43455206 522.98645844 182.85556092 539.78271484 198.40966797 C542.46708036 200.89539224 545.18285796 203.32743328 547.96484375 205.703125 C551.78025984 209.00294432 555.30502896 212.57452823 558.84277344 216.16503906 C561.3764117 218.72315692 563.94622711 221.15286106 566.71484375 223.453125 C572.11193933 228.04900226 576.76472721 233.40693177 581.5625 238.609375 C584.0952482 241.35100235 586.67682651 244.02432736 589.33984375 246.640625 C592.40743007 249.66271746 595.25592623 252.81724136 598.0625 256.08203125 C600.09743194 258.42803558 602.18525342 260.7204895 604.27734375 263.015625 C608.102707 267.25888508 611.75328465 271.61171997 615.34375 276.0546875 C617.22496784 278.38123954 619.13364127 280.68279309 621.0546875 282.9765625 C629.42337383 292.99264689 637.37621704 303.26588612 645.11474609 313.77587891 C646.25750305 315.32754371 647.40336357 316.87693071 648.55322266 318.42333984 C669.89135775 347.12578978 688.82487832 377.91053768 705.49267578 409.53955078 C706.7774696 411.96717471 708.08273813 414.38199855 709.3984375 416.79296875 C745.79732505 483.91364834 770.46553749 558.61520469 794.140625 709.98046875 C794.2038797 710.66248856 794.2671344 711.34450836 794.33230591 712.04719543 C795.54193775 725.79333007 796.06761089 739.50700409 796.10546875 753.30078125 C796.11249156 754.89406359 796.11957837 756.48734565 796.12672424 758.08062744 C796.14611642 763.14229744 796.15115824 768.20392159 796.15234375 773.265625 C796.15278561 774.1281979 796.15322746 774.9907708 796.15368271 775.87948227 C796.16043258 801.00510958 795.99557683 825.98564367 793.15234375 850.98028564 C792.89019298 853.3111618 792.64307061 855.64329759 792.3984375 857.97607422 C788.23897876 897.25998679 781.00486177 936.02013301 770.90234375 974.203125 C770.5779834 975.43305176 770.25362305 976.66297852 769.91943359 977.93017578 C753.54113125 1039.19401723 729.32639392 1099.09090027 697.90234375 1154.203125 C697.30437988 1155.26289551 696.70641602 1156.32266602 696.09033203 1157.41455078 C687.73577323 1172.17687268 678.8914402 1186.53689528 669.46484375 1200.640625 C669.01038879 1201.32073639 668.55593384 1202.00084778 668.08770752 1202.7015686 C660.01652952 1214.7490882 651.69557978 1226.62263129 642.96484375 1238.203125 C642.46815186 1238.8633667 641.97145996 1239.5236084 641.4597168 1240.20385742 C627.67091669 1258.46883176 613.24990783 1276.28723969 597.69580078 1293.08349609 C595.21007651 1295.76786161 592.77803547 1298.48363921 590.40234375 1301.265625 C587.10252443 1305.08104109 583.53094052 1308.60581021 579.94042969 1312.14355469 C577.38231183 1314.67719295 574.95260769 1317.24700836 572.65234375 1320.015625 C568.05646649 1325.41272058 562.69853698 1330.06550846 557.49609375 1334.86328125 C554.7544664 1337.39602945 552.08114139 1339.97760776 549.46484375 1342.640625 C546.44275129 1345.70821132 543.28822739 1348.55670748 540.0234375 1351.36328125 C537.67743317 1353.39821319 535.38497925 1355.48603467 533.08984375 1357.578125 C528.84658367 1361.40348825 524.49374878 1365.0540659 520.05078125 1368.64453125 C517.72422921 1370.52574909 515.42267566 1372.43442252 513.12890625 1374.35546875 C503.11282186 1382.72415508 492.83958263 1390.67699829 482.32958984 1398.41552734 C480.77792504 1399.5582843 479.22853804 1400.70414482 477.68212891 1401.85400391 C448.97967897 1423.192139 418.19493107 1442.12565957 386.56591797 1458.79345703 C384.13829404 1460.07825085 381.7234702 1461.38351938 379.3125 1462.69921875 C312.19182041 1499.0981063 237.49026406 1523.76631874 86.125 1547.44140625 C85.44298019 1547.50466095 84.76096039 1547.56791565 84.05827332 1547.63308716 C70.31213868 1548.842719 56.59846466 1549.36839214 42.8046875 1549.40625 C41.21140516 1549.41327281 39.6181231 1549.42035962 38.02484131 1549.42750549 C32.96317131 1549.44689767 27.90154716 1549.45193949 22.83984375 1549.453125 C21.97727085 1549.45356686 21.11469795 1549.45400871 20.22598648 1549.45446396 C-4.89964083 1549.46121383 -29.88017492 1549.29635808 -54.87481689 1546.453125 C-57.20569305 1546.19097423 -59.53782884 1545.94385186 -61.87060547 1545.69921875 C-101.15451804 1541.53976001 -139.91466426 1534.30564302 -178.09765625 1524.203125 C-179.32758301 1523.87876465 -180.55750977 1523.5544043 -181.82470703 1523.22021484 C-243.08854848 1506.8419125 -302.98543152 1482.62717517 -358.09765625 1451.203125 C-359.15742676 1450.60516113 -360.21719727 1450.00719727 -361.30908203 1449.39111328 C-376.07140393 1441.03655448 -390.43142653 1432.19222145 -404.53515625 1422.765625 C-405.21526764 1422.31117004 -405.89537903 1421.85671509 -406.59609985 1421.38848877 C-418.64361945 1413.31731077 -430.51716254 1404.99636103 -442.09765625 1396.265625 C-443.0880188 1395.52058716 -443.0880188 1395.52058716 -444.09838867 1394.76049805 C-462.36336301 1380.97169794 -480.18177094 1366.55068908 -496.97802734 1350.99658203 C-499.66239286 1348.51085776 -502.37817046 1346.07881672 -505.16015625 1343.703125 C-508.97557234 1340.40330568 -512.50034146 1336.83172177 -516.03808594 1333.24121094 C-518.5717242 1330.68309308 -521.14153961 1328.25338894 -523.91015625 1325.953125 C-529.30725183 1321.35724774 -533.96003971 1315.99931823 -538.7578125 1310.796875 C-541.2905607 1308.05524765 -543.87213901 1305.38192264 -546.53515625 1302.765625 C-549.60274257 1299.74353254 -552.45123873 1296.58900864 -555.2578125 1293.32421875 C-557.29274444 1290.97821442 -559.38056592 1288.6857605 -561.47265625 1286.390625 C-565.2980195 1282.14736492 -568.94859715 1277.79453003 -572.5390625 1273.3515625 C-574.42028034 1271.02501046 -576.32895377 1268.72345691 -578.25 1266.4296875 C-586.61868633 1256.41360311 -594.57152954 1246.14036388 -602.31005859 1235.63037109 C-603.45281555 1234.07870629 -604.59867607 1232.52931929 -605.74853516 1230.98291016 C-627.08667025 1202.28046022 -646.02019082 1171.49571232 -662.68798828 1139.86669922 C-663.9727821 1137.43907529 -665.27805063 1135.02425145 -666.59375 1132.61328125 C-702.99263755 1065.49260166 -727.66084999 990.79104531 -751.3359375 839.42578125 C-751.43081955 838.40275154 -751.43081955 838.40275154 -751.52761841 837.35905457 C-752.73725025 823.61291993 -753.26292339 809.89924591 -753.30078125 796.10546875 C-753.30780406 794.51218641 -753.31489087 792.91890435 -753.32203674 791.32562256 C-753.34142892 786.26395256 -753.34647074 781.20232841 -753.34765625 776.140625 C-753.34809811 775.2780521 -753.34853996 774.4154792 -753.34899521 773.52676773 C-753.35574508 748.40114042 -753.19088933 723.42060633 -750.34765625 698.42596436 C-750.08550548 696.0950882 -749.83838311 693.76295241 -749.59375 691.43017578 C-745.43429126 652.14626321 -738.20017427 613.38611699 -728.09765625 575.203125 C-727.7732959 573.97319824 -727.44893555 572.74327148 -727.11474609 571.47607422 C-710.73644375 510.21223277 -686.52170642 450.31534973 -655.09765625 395.203125 C-654.49969238 394.14335449 -653.90172852 393.08358398 -653.28564453 391.99169922 C-644.93108573 377.22937732 -636.0867527 362.86935472 -626.66015625 348.765625 C-626.20570129 348.08551361 -625.75124634 347.40540222 -625.28302002 346.7046814 C-617.21184202 334.6571618 -608.89089228 322.78361871 -600.16015625 311.203125 C-599.66346436 310.5428833 -599.16677246 309.8826416 -598.6550293 309.20239258 C-584.86622919 290.93741824 -570.44522033 273.11901031 -554.89111328 256.32275391 C-552.40538901 253.63838839 -549.97334797 250.92261079 -547.59765625 248.140625 C-544.29783693 244.32520891 -540.72625302 240.80043979 -537.13574219 237.26269531 C-534.57762433 234.72905705 -532.14792019 232.15924164 -529.84765625 229.390625 C-525.25177899 223.99352942 -519.89384948 219.34074154 -514.69140625 214.54296875 C-511.9497789 212.01022055 -509.27645389 209.42864224 -506.66015625 206.765625 C-503.63806379 203.69803868 -500.48353989 200.84954252 -497.21875 198.04296875 C-494.87274567 196.00803681 -492.58029175 193.92021533 -490.28515625 191.828125 C-486.04189617 188.00276175 -481.68906128 184.3521841 -477.24609375 180.76171875 C-474.91954171 178.88050091 -472.61798816 176.97182748 -470.32421875 175.05078125 C-460.30813436 166.68209492 -450.03489513 158.72925171 -439.52490234 150.99072266 C-437.97323754 149.8479657 -436.42385054 148.70210518 -434.87744141 147.55224609 C-406.17499147 126.214111 -375.39024357 107.28059043 -343.76123047 90.61279297 C-341.33360654 89.32799915 -338.9187827 88.02273062 -336.5078125 86.70703125 C-269.38713291 50.3081437 -194.68557656 25.63993126 -43.3203125 1.96484375 C-42.29728279 1.8699617 -42.29728279 1.8699617 -41.25358582 1.77316284 C-27.50745118 0.563531 -13.79377716 0.03785786 0 0 Z " fill="#000000" transform="translate(753.09765625,-0.203125)"/>
<path d="M0 0 C1.81771028 0.01136595 3.6354236 0.02225381 5.45313931 0.03271675 C30.00645087 0.22141682 54.55304349 1.02854388 79.09432826 1.77730101 C86.38417135 1.9995089 93.67422151 2.21456355 100.96428245 2.42948474 C114.02988727 2.81488221 127.09531564 3.20595305 140.16064453 3.60058594 C152.67648733 3.97861309 165.19242555 4.35322057 177.70849609 4.72363281 C178.86229674 4.75778055 178.86229674 4.75778055 180.03940649 4.79261814 C183.13681328 4.8842816 186.23422022 4.97594012 189.33162749 5.06758749 C202.20966519 5.44873537 215.08761635 5.83279331 227.96555781 6.21717691 C230.84080565 6.30298755 233.71605698 6.38867988 236.59131169 6.47425985 C267.68133366 7.39974923 298.76874962 8.37265744 329.85280681 9.48312271 C348.34989551 10.14340868 366.84632909 10.72960863 385.34907413 11.20446801 C388.98823012 11.29858528 392.62729684 11.39605081 396.26637268 11.49320984 C402.41026151 11.65701024 408.55417878 11.81968829 414.69812012 11.98150635 C430.78930153 12.40571338 446.88020115 12.84036828 462.97094727 13.28076172 C463.76214667 13.30240733 464.55334607 13.32405294 465.36852121 13.34635448 C495.811879 14.18021557 526.24797061 15.16434327 556.68212891 16.28613281 C559.89688111 16.40441255 563.11164441 16.52238559 566.32641602 16.64013672 C567.48369737 16.68264179 567.48369737 16.68264179 568.66435814 16.72600555 C580.75322723 17.16788734 592.84315267 17.52966783 604.93579102 17.85107422 C606.57759626 17.89517386 608.21940127 17.93928186 609.86120605 17.98339844 C616.76176895 18.16772584 623.66235023 18.34741864 630.5634861 18.50898743 C654.60047676 19.07842176 654.60047676 19.07842176 666.24047852 20.17919922 C666.99587921 20.24784683 667.75127991 20.31649445 668.52957153 20.38722229 C680.66211766 21.69532394 693.05644952 26.06033248 702.91235352 33.29248047 C704.26200195 34.27861328 704.26200195 34.27861328 705.63891602 35.28466797 C718.61188942 45.32710744 726.48880587 58.50093786 734.91235352 72.29248047 C735.52433594 73.29182617 736.13631836 74.29117188 736.7668457 75.32080078 C741.8484818 83.62468552 746.9074902 91.94207066 751.91235352 100.29248047 C752.53891846 100.16478271 753.1654834 100.03708496 753.81103516 99.90551758 C761.62536557 98.39071793 769.42767311 97.57467222 777.34985352 96.85498047 C786.20974439 96.02830218 795.00619604 95.063982 803.78735352 93.60498047 C827.5748676 89.77210458 852.48826942 92.74433491 872.91235352 106.29248047 C877.21984336 109.64479694 881.0794187 113.41542554 884.91235352 117.29248047 C886.02416992 118.38882813 886.02416992 118.38882813 887.15844727 119.50732422 C904.35223271 137.50549728 909.40437127 161.68715438 909.28657532 185.73258972 C909.28932211 187.44465309 909.29337947 189.15671477 909.29861897 190.86877233 C909.30912364 195.53203376 909.3011307 200.19510121 909.28986847 204.85835397 C909.28097617 209.90336485 909.28948436 214.94835172 909.29573059 219.99336243 C909.30519083 229.8593761 909.29864344 239.72531633 909.28646765 249.59132453 C909.27280859 261.08982192 909.27448891 272.58830206 909.27660098 284.0868055 C909.27978671 304.60614383 909.26814626 325.12544738 909.24853516 345.64477539 C909.22952535 365.54029397 909.22245009 385.43577181 909.22802734 405.33129883 C909.234089 427.01881571 909.23390155 448.70631472 909.22254151 470.39383012 C909.22133427 472.70744693 909.22012828 475.02106374 909.21892357 477.33468056 C909.21801826 479.04202299 909.21801826 479.04202299 909.21709466 480.78385719 C909.2132205 488.79293574 909.21360717 496.80200762 909.21550941 504.81108665 C909.21763434 514.57322481 909.21238456 524.33532734 909.19789586 534.09745546 C909.19066678 539.07514212 909.18656219 544.05277697 909.19113922 549.03046799 C909.19523135 553.59183085 909.19000566 558.15308699 909.17751314 562.71443371 C909.17459818 564.35954214 909.17499908 566.00466071 909.17915622 567.64976647 C909.20786074 580.14913232 908.28948551 591.87106947 903.84985352 603.66748047 C903.5453125 604.47838135 903.24077148 605.28928223 902.92700195 606.12475586 C895.26270573 625.65715701 880.45638234 642.44542204 861.47485352 651.60498047 C835.26028727 662.93420478 807.40548862 659.47452652 779.59985352 657.85498047 C778.4349942 657.78758667 777.27013489 657.72019287 776.06997681 657.65075684 C772.70853626 657.45404267 769.34749696 657.2517124 765.98657227 657.04638672 C764.9740036 656.98590652 763.96143494 656.92542633 762.91818237 656.8631134 C761.96710602 656.80314682 761.01602966 656.74318024 760.03613281 656.68139648 C759.21235641 656.63032242 758.38858002 656.57924835 757.5398407 656.52662659 C755.59670587 656.3534659 753.66022331 656.10164249 751.73165894 655.80770874 C747.0507512 655.17624942 742.39421034 654.90814884 737.6796875 654.65991211 C736.67346848 654.60445724 735.66724945 654.54900238 734.63053894 654.49186707 C731.30665463 654.30932883 727.98255564 654.13104391 724.65844727 653.95263672 C722.31891672 653.82465339 719.97940385 653.69634675 717.63990784 653.56773376 C711.46529745 653.22892218 705.29051005 652.89346324 699.11566162 652.559021 C688.15054648 651.96490472 677.18567377 651.36637965 666.22094727 650.76513672 C664.46381 650.6690169 664.46381 650.6690169 662.671175 650.57095528 C648.11195463 649.77292827 633.55751743 648.94198179 619.01365662 647.89710999 C608.3016942 647.13493575 597.57843693 646.76780719 586.84472656 646.46606445 C584.46610153 646.32525999 582.14721289 646.09700766 579.7835083 645.81542969 C575.2066671 645.30030444 570.63999484 644.99119865 566.04150391 644.75170898 C564.78544594 644.68315704 564.78544594 644.68315704 563.50401306 644.61322021 C561.69868457 644.51499965 559.89329332 644.41792707 558.08784676 644.32190132 C555.20242251 644.16832158 552.31719369 644.01143921 549.43199158 643.85374451 C542.25272815 643.46197819 535.07319235 643.07530992 527.89361572 642.68933105 C484.63967124 640.3632105 484.63967124 640.3632105 468.01641846 639.00927734 C455.14633554 637.96577854 442.25620162 637.23103705 429.36640167 636.4800148 C427.19235949 636.3530833 425.01838476 636.22504489 422.84442139 636.09677124 C406.12763493 635.11207048 389.40903414 634.19261834 372.68188477 633.40185547 C371.95154589 633.36731703 371.22120701 633.33277859 370.46873665 633.29719353 C363.43986496 632.96588285 356.41068994 632.64216355 349.38085079 632.33203697 C347.43461264 632.24586569 345.48844629 632.15807747 343.5422821 632.07025146 C341.18200131 631.9639818 338.82158311 631.86070256 336.46101379 631.76104736 C335.41708969 631.71381531 334.37316559 631.66658325 333.29760742 631.61791992 C332.39684479 631.57891068 331.49608215 631.53990143 330.56802368 631.49971008 C327.91235352 631.29248047 327.91235352 631.29248047 325.12782764 630.80560589 C322.00273719 630.3069039 318.96778131 630.04769348 315.80909729 629.87524414 C314.60774139 629.8080014 313.4063855 629.74075867 312.16862488 629.67147827 C310.86403824 629.60183868 309.5594516 629.5321991 308.21533203 629.46044922 C306.81693932 629.38340187 305.41856323 629.30605223 304.02020264 629.22842407 C301.0165404 629.06229293 298.01277525 628.89822309 295.00891304 628.73574829 C290.25541079 628.47855604 285.50219413 628.21633328 280.74900818 627.95336914 C271.51544511 627.44319185 262.28162785 626.93771717 253.04776001 626.43309021 C241.29790366 625.79095873 229.54810054 625.14792863 217.79866356 624.49816227 C213.07739419 624.23725092 208.35597362 623.97933692 203.63441288 623.72375488 C200.69275325 623.56391619 197.75123723 623.40154562 194.80975342 623.23850632 C192.80381887 623.12809227 190.79771673 623.02073618 188.79161072 622.91348267 C183.1046473 622.59591524 177.54757645 622.14121891 171.91235352 621.29248047 C168.7446734 621.02702326 165.57321055 620.85103996 162.39941406 620.67578125 C161.46628199 620.6218732 160.53314991 620.56796515 159.5717411 620.51242352 C156.48101 620.33464172 153.39005364 620.16116473 150.29907227 619.98779297 C148.11246989 619.86307344 145.92588057 619.73812479 143.73930359 619.61296082 C137.89987005 619.27956305 132.06022005 618.95011243 126.22051239 618.62155533 C122.59871382 618.41741623 118.9769881 618.21203175 115.35528564 618.00619507 C87.20290403 616.40618773 59.04948247 614.84912093 30.88717651 613.43414307 C10.75518379 612.4202634 -9.35864328 611.19893108 -29.47116089 609.85502625 C-35.48333856 609.45595687 -41.49665973 609.08432629 -47.51165771 608.73034668 C-51.69873483 608.48340147 -55.88532427 608.22868582 -60.07189941 607.97338867 C-62.04474985 607.8550416 -64.01781168 607.74015501 -65.99108887 607.62915039 C-93.34757762 606.08530104 -116.1899066 600.16195652 -136.08764648 580.29248047 C-136.83014648 579.56158203 -137.57264648 578.83068359 -138.33764648 578.07763672 C-150.59961741 565.21693675 -156.02283477 549.35627569 -158.52514648 532.10498047 C-158.73514157 530.70949789 -158.94552085 529.31407309 -159.15625 527.91870117 C-161.03649561 515.29639446 -162.59513385 502.63254046 -164.13549805 489.96508789 C-165.92081661 475.32760234 -167.93979919 460.72755523 -170.03271484 446.13110352 C-171.29467565 437.28536771 -172.44297576 428.44344099 -173.39732361 419.559021 C-174.0788907 413.24147417 -174.93144065 406.95670389 -175.83764648 400.66748047 C-177.73461691 387.22693034 -179.4214367 373.76332324 -181.08764648 360.29248047 C-182.91796011 345.498055 -184.78857885 330.71424868 -186.88256836 315.95458984 C-187.29181974 313.06819576 -187.69309952 310.18091756 -188.08764648 307.29248047 C-188.24450928 306.17498413 -188.24450928 306.17498413 -188.40454102 305.03491211 C-191.72377196 279.00062219 -189.30060304 254.28772191 -173.58764648 232.72998047 C-172.11488977 230.89527507 -170.61696411 229.08031264 -169.08764648 227.29248047 C-168.48694336 226.57962891 -167.88624023 225.86677734 -167.26733398 225.13232422 C-154.14529755 210.84577806 -135.87972233 203.25151474 -117.08764648 200.29248047 C-116.3515918 200.16099609 -115.61553711 200.02951172 -114.85717773 199.89404297 C-108.34000687 198.86574735 -101.66274147 199.22304969 -95.08764648 199.29248047 C-95.10124207 198.46929321 -95.11483765 197.64610596 -95.12884521 196.79797363 C-95.21386188 187.52322189 -94.68647891 178.37436704 -93.91577148 169.13623047 C-93.79169703 167.59891934 -93.66809771 166.0615698 -93.54493713 164.52418518 C-93.21712371 160.45132487 -92.88222939 156.37907941 -92.5452919 152.30696487 C-92.26673742 148.93380633 -91.99146236 145.56038312 -91.71609592 142.18696308 C-91.1001 134.64211914 -90.47858448 127.09774749 -89.8527832 119.55371094 C-89.28247417 112.6776207 -88.7244746 105.80067301 -88.17501831 98.92288208 C-87.83496644 94.68550412 -87.48660217 90.44884712 -87.13513184 86.21240234 C-86.98062469 84.33359547 -86.82924752 82.45452809 -86.68127441 80.57519531 C-84.64364635 54.81769751 -77.05650491 33.57108992 -57.08764648 16.29248047 C-39.58423855 3.08860152 -21.25408662 -0.2544393 0 0 Z " fill="#FEFEFE" transform="translate(408.087646484375,439.70751953125)"/>
<path d="M0 0 C1.17691406 -0.02449219 2.35382812 -0.04898438 3.56640625 -0.07421875 C18.84524613 -0.12464396 32.62214432 4.89269983 43.8125 15.375 C55.55635186 27.72368543 61.23913846 42.52028365 61.25642776 59.56911564 C61.25950672 60.60822417 61.25950672 60.60822417 61.26264787 61.6683248 C61.26828919 63.98284523 61.26686418 66.29730561 61.26544189 68.61183167 C61.26802718 70.29081459 61.27104079 71.96979691 61.2744453 73.64877838 C61.2824994 78.25777955 61.28430398 82.86676513 61.28504276 87.4757725 C61.28689609 92.4487014 61.29444486 97.42162227 61.30117798 102.39454651 C61.31475067 113.266625 61.3207844 124.13869979 61.32518864 135.01078534 C61.32795294 141.80194441 61.33219064 148.59310207 61.33669281 155.38426018 C61.34888424 174.19428321 61.3591837 193.00430511 61.3625679 211.81433201 C61.36278747 213.01784968 61.36300703 214.22136736 61.36323325 215.46135527 C61.36345153 216.66772091 61.36366981 217.87408656 61.3638947 219.11700875 C61.36433816 221.56148565 61.36478473 224.00596255 61.36523438 226.45043945 C61.3654558 227.66297942 61.36567723 228.87551939 61.36590537 230.124803 C61.36985232 249.76669111 61.38730377 269.4085421 61.4105939 289.05041588 C61.4343233 309.22594797 61.44677048 329.40146144 61.44793582 349.57700771 C61.4488517 360.90095888 61.45458212 372.22486169 61.47275543 383.54879951 C61.48817787 393.19250009 61.49326423 402.83613735 61.48501733 412.47984792 C61.4811184 417.39700069 61.48200341 422.31402604 61.49607468 427.23116302 C61.50885893 431.73993759 61.50757657 436.24848955 61.49548396 440.75726401 C61.49353478 442.3811176 61.49656908 444.00498721 61.50532833 445.62881834 C61.56992229 458.42212356 60.64953338 471.0270627 54.5625 482.5625 C54.21880371 483.22685059 53.87510742 483.89120117 53.52099609 484.57568359 C45.61959065 499.16316462 33.482584 506.92273185 18.125 512.375 C13.96324556 513.41463216 9.9065846 513.53602042 5.640625 513.54296875 C4.90793396 513.54629715 4.17524292 513.54962555 3.42034912 513.55305481 C1.8603172 513.55811236 0.30027449 513.5604635 -1.25976562 513.56030273 C-3.54838468 513.56242883 -5.83647027 513.58042201 -8.125 513.59960938 C-18.18353819 513.63783558 -28.10884275 513.03617178 -38.12840271 512.17445374 C-48.96291995 511.25039706 -59.80458981 510.69463334 -70.66473389 510.17062378 C-76.9215425 509.86757774 -83.17757971 509.54944395 -89.43359375 509.23046875 C-91.40891083 509.12977837 -91.40891083 509.12977837 -93.4241333 509.02705383 C-108.8068065 508.23763018 -124.1835279 507.34601781 -139.55978012 506.44115448 C-141.71036029 506.31482845 -143.86098581 506.18930491 -146.0116272 506.06402588 C-159.87114126 505.25578822 -173.72486554 504.40492734 -187.5703125 503.37890625 C-202.13028245 502.30665788 -216.70247297 501.54224282 -231.28102112 500.77753353 C-246.78332699 499.96191603 -262.28179825 499.07416208 -277.78076172 498.19775391 C-281.61141839 497.981272 -285.44214911 497.76617452 -289.27294922 497.55224609 C-325.90193338 495.50590374 -325.90193338 495.50590374 -344.03845215 494.09495544 C-357.44819545 493.06998591 -370.87908189 492.39663637 -384.30838013 491.68624878 C-392.37396794 491.25944117 -400.43892905 490.82098144 -408.50390625 490.3828125 C-409.70260125 490.31778314 -409.70260125 490.31778314 -410.92551231 490.25144005 C-424.93276634 489.49081911 -438.93643403 488.68020532 -452.9375 487.8125 C-453.91284698 487.75215576 -454.88819397 487.69181152 -455.89309692 487.62963867 C-465.33107853 487.04441036 -474.76823087 486.44640506 -484.20504761 485.8427124 C-488.9491037 485.5394782 -493.69327529 485.23808361 -498.4375 484.9375 C-499.3830072 484.87747803 -500.3285144 484.81745605 -501.30267334 484.75561523 C-514.82620228 483.9005928 -528.35299222 483.11483933 -541.8828125 482.3671875 C-542.67041143 482.32363821 -543.45801037 482.28008892 -544.26947594 482.23521996 C-552.15365065 481.79966413 -560.03798893 481.36727854 -567.92270851 480.94169617 C-571.60870649 480.74249898 -575.29461468 480.54168544 -578.98046875 480.33984375 C-580.05241234 480.28118448 -580.05241234 480.28118448 -581.14601135 480.22134018 C-592.54165934 479.59422983 -603.92636212 478.85884265 -615.30900574 478.02598572 C-622.39205177 477.51400597 -629.46456116 477.15904493 -636.5625 476.9375 C-647.71139778 476.55378411 -658.81485971 475.76642459 -669.9375 474.9375 C-685.72524326 473.76092185 -701.50821276 472.80807125 -717.32446289 472.10961914 C-726.44170351 471.6981538 -735.53572888 471.12250543 -744.63720703 470.44555664 C-758.33191657 469.44901055 -772.0327027 468.655996 -785.74401855 467.92829895 C-789.81809972 467.71181018 -793.89198183 467.49186984 -797.96582031 467.27087402 C-809.52495779 466.64444907 -821.08440178 466.02379466 -832.64404297 465.40673828 C-839.08448566 465.06290755 -845.52473799 464.71569665 -851.96481419 464.36506701 C-855.34186409 464.18136893 -858.71899738 463.99990758 -862.09634399 463.82170105 C-874.12174735 463.18697981 -886.1427489 462.55104626 -898.1328125 461.41210938 C-898.90441711 461.34198891 -899.67602173 461.27186844 -900.4710083 461.19962311 C-912.18156159 459.99723653 -923.27632195 456.28748084 -932.875 449.375 C-933.4834375 448.95992187 -934.091875 448.54484375 -934.71875 448.1171875 C-948.92050262 437.3367662 -953.78780269 419.64503928 -956.41989136 402.91067505 C-956.90178175 399.38230694 -957.34747965 395.85148429 -957.77734375 392.31640625 C-957.94118057 391.01138657 -958.1050174 389.70636688 -958.27381897 388.36180115 C-958.70667596 384.91392849 -959.13239303 381.46521398 -959.55633545 378.01623535 C-959.97561589 374.61384005 -960.40097083 371.2122065 -960.82617188 367.81054688 C-961.3355674 363.73335585 -961.84449284 359.65611071 -962.35044861 355.57849121 C-963.48585649 346.43519516 -964.65583328 337.29680321 -965.84375 328.16015625 C-967.31617807 316.81769313 -968.73809014 305.46989795 -970.12890625 294.1171875 C-970.27100934 292.95798577 -970.27100934 292.95798577 -970.4159832 291.77536583 C-971.28732957 284.66562589 -972.15657877 277.55563076 -973.02319336 270.4453125 C-975.04850275 253.83527665 -977.09323274 237.23665384 -979.53817749 220.68200684 C-980.46387736 214.34158761 -981.31975897 207.99106638 -982.18261719 201.6418457 C-982.39642656 200.07264939 -982.61162395 198.50364166 -982.828125 196.93481445 C-986.25647951 172.08689681 -989.1637197 149.3794909 -973.75 127.6875 C-962.29956536 113.82114947 -947.29243352 109.08753295 -930.24511719 106.57104492 C-926.78355868 106.28472112 -923.34802565 106.34705037 -919.875 106.375 C-920.61858893 121.71347163 -921.77766759 137.01804389 -922.96194458 152.32785034 C-923.12744821 154.46917546 -923.29218032 156.6105589 -923.45678711 158.75195312 C-924.97453647 178.47102108 -926.61281257 198.17608061 -928.375 217.875 C-930.1151293 237.41128377 -931.79545644 256.95158643 -933.34814453 276.50366211 C-933.56871863 279.27735663 -933.79413832 282.05058079 -934.02441406 284.82348633 C-935.16181967 298.6175001 -936.06975909 312.35333536 -936.1171875 326.19921875 C-936.12309402 327.29007782 -936.12900055 328.38093689 -936.13508606 329.50485229 C-936.0815599 338.58439884 -934.72635461 346.77403891 -931.875 355.375 C-931.524375 356.44363281 -931.17375 357.51226563 -930.8125 358.61328125 C-923.49279344 378.2087457 -908.81525262 391.24316793 -890.3125 400.1875 C-878.8484844 405.15078372 -866.92678972 406.40438988 -854.58203125 406.875 C-853.56485519 406.91560547 -852.54767914 406.95621094 -851.49967957 406.99804688 C-849.32187662 407.08379567 -847.14400178 407.16773486 -844.96606445 407.25 C-841.85273588 407.36870014 -838.73988204 407.49631049 -835.62695312 407.625 C-821.14920172 408.19723705 -806.67371021 408.50477929 -792.18743896 408.75509644 C-770.2620165 409.13416333 -748.34449881 409.66081424 -726.42578125 410.3125 C-725.7094267 410.33376701 -724.99307215 410.35503403 -724.25500989 410.3769455 C-714.71637009 410.66040186 -705.17789664 410.94924812 -695.63946533 411.23962402 C-683.81703995 411.59938989 -671.99447221 411.9544696 -660.17187119 412.30841064 C-657.31211396 412.39403087 -654.45236581 412.47994563 -651.59262466 412.56610107 C-632.74678551 413.13338428 -613.90069784 413.65963447 -595.04988098 414.03344727 C-586.59381805 414.2087902 -578.16333157 414.54740197 -569.71858883 415.02014923 C-562.71425968 415.40443452 -555.71751389 415.57288231 -548.703125 415.65625 C-546.8276297 415.68386414 -546.8276297 415.68386414 -544.91424561 415.71203613 C-540.98453623 415.76975839 -537.05478843 415.82295948 -533.125 415.875 C-527.94264417 415.94400349 -522.7603814 416.0176811 -517.578125 416.09375 C-516.44401184 416.10732544 -515.30989868 416.12090088 -514.14141846 416.1348877 C-507.96230412 416.22564607 -501.79910509 416.41200279 -495.62670088 416.70487309 C-480.55869519 417.41486608 -465.48374578 417.78963235 -450.40434909 418.15275049 C-446.5283003 418.24658295 -442.65231513 418.34298074 -438.77632141 418.4390564 C-432.08368634 418.60462915 -425.39101573 418.76869329 -418.69831848 418.93173218 C-408.9972099 419.16809905 -399.296173 419.40731242 -389.59515232 419.64725697 C-373.81591326 420.03750443 -358.03663541 420.42615707 -342.25732422 420.81347656 C-341.31637655 420.83657367 -340.37542889 420.85967077 -339.40596765 420.88346779 C-332.72897949 421.04735486 -326.05198991 421.21118416 -319.375 421.375 C-311.74755762 421.56213461 -304.12011587 421.74929539 -296.49267578 421.93652344 C-295.55289711 421.95959128 -294.61311845 421.98265911 -293.64486164 422.00642598 C-277.91760185 422.39252081 -262.19038458 422.78032272 -246.46319628 423.1693182 C-236.7982752 423.40828832 -227.13331947 423.64575406 -217.46831191 423.88120055 C-210.8375808 424.04282803 -204.20688917 424.20601348 -197.57622516 424.37037015 C-193.76574045 424.46476757 -189.95524259 424.55848987 -186.14469337 424.65024948 C-170.98925902 425.01562835 -155.8441007 425.45750055 -140.69989777 426.15817261 C-134.7033932 426.43431844 -128.70622888 426.60986398 -122.70507812 426.74804688 C-121.57798935 426.77584732 -120.45090057 426.80364777 -119.28965759 426.83229065 C-116.89576002 426.89106927 -114.50183853 426.94888095 -112.1078949 427.00575256 C-108.29392188 427.09642032 -104.4800266 427.18992149 -100.6661377 427.28405762 C-92.56914939 427.48343888 -84.47208305 427.67951003 -76.375 427.875 C-66.97369465 428.10197815 -57.57243133 428.33047105 -48.17124939 428.56251526 C-44.45897369 428.65342819 -40.74664293 428.74176399 -37.03430176 428.82995605 C-22.63889753 429.17999675 -8.25820853 429.68485802 6.125 430.375 C6.10445053 429.57308228 6.08390106 428.77116455 6.06272888 427.94494629 C5.91929582 421.35407325 6.30217093 415.0076201 7.05859375 408.46875 C7.7340898 402.34474004 8.32973587 396.23031087 8.73046875 390.08203125 C8.77629089 389.38385284 8.82211304 388.68567444 8.86932373 387.96633911 C8.96573465 386.48936765 9.06185653 385.0123773 9.15771484 383.53536987 C10.98410728 355.83160368 13.8815094 328.2170496 16.62641144 300.59293556 C17.6738464 290.05085366 18.68191483 279.50574607 19.66015625 268.95703125 C20.92120206 255.38007133 22.28502795 241.81548233 23.68792725 228.25253296 C25.72427574 208.53160769 27.69742217 188.80624489 29.5 169.0625 C29.58530975 168.13739624 29.67061951 167.21229248 29.7585144 166.25915527 C29.99588012 163.67695599 30.22925557 161.0944335 30.4609375 158.51171875 C30.56359169 157.39560463 30.56359169 157.39560463 30.6683197 156.25694275 C31.71667668 148.05041856 31.71667668 148.05041856 29.140625 140.51953125 C28.7062915 139.82480713 28.27195801 139.13008301 27.82446289 138.41430664 C27.34614014 137.67946045 26.86781738 136.94461426 26.375 136.1875 C25.88056396 135.40431396 25.38612793 134.62112793 24.87670898 133.81420898 C23.83029642 132.15959689 22.77799512 130.50869613 21.72021484 128.86132812 C20.18130657 126.46276035 18.65978205 124.05419231 17.14453125 121.640625 C13.67545375 116.11881852 10.18185529 110.61268134 6.68505859 105.10839844 C-0.28703798 94.13003711 -7.14330334 83.08541715 -13.94555664 72.00097656 C-18.41121088 64.73167924 -22.92890624 57.49872109 -27.5012207 50.29614258 C-31.79089378 43.53168615 -36.00168306 36.71972976 -40.20263672 29.89990234 C-44.15546647 23.49658319 -48.21500662 17.17279968 -52.36328125 10.89453125 C-53.875 8.375 -53.875 8.375 -53.875 6.375 C-53.05410889 6.26430176 -52.23321777 6.15360352 -51.38745117 6.03955078 C-48.28773002 5.62032173 -45.1883275 5.19882369 -42.08911133 4.77587891 C-40.10976889 4.50643463 -38.13008337 4.23951448 -36.15039062 3.97265625 C-30.49648464 3.1997172 -24.88532705 2.40560573 -19.29296875 1.265625 C-12.87582218 0.06408131 -6.51304821 0.0070871 0 0 Z " fill="#020202" transform="translate(1229.875,558.625)"/>
<path d="M0 0 C3.66439577 3.06150742 7.04564338 6.36150854 10.40136719 9.75585938 C11.14257812 10.48675781 11.88378906 11.21765625 12.64746094 11.97070312 C29.84124638 29.96887619 34.89338494 54.15053329 34.77558899 78.19596863 C34.77833579 79.908032 34.78239314 81.62009368 34.78763264 83.33215123 C34.79813731 87.99541267 34.79014437 92.65848011 34.77888215 97.32173288 C34.76998984 102.36674376 34.77849803 107.41173062 34.78474426 112.45674133 C34.7942045 122.32275501 34.78765711 132.18869524 34.77548132 142.05470344 C34.76182226 153.55320083 34.76350258 165.05168096 34.76561465 176.55018441 C34.76880038 197.06952273 34.75715993 217.58882628 34.73754883 238.1081543 C34.71853902 258.00367288 34.71146376 277.89915072 34.71704102 297.79467773 C34.72310267 319.48219462 34.72291522 341.16969362 34.71155518 362.85720903 C34.71034794 365.17082584 34.70914195 367.48444265 34.70793724 369.79805946 C34.70703193 371.5054019 34.70703193 371.5054019 34.70610834 373.2472361 C34.70223417 381.25631465 34.70262084 389.26538653 34.70452309 397.27446556 C34.70664801 407.03660371 34.70139823 416.79870624 34.68690953 426.56083437 C34.67968045 431.53852102 34.67557586 436.51615588 34.68015289 441.49384689 C34.68424502 446.05520975 34.67901934 450.6164659 34.66652682 455.17781261 C34.66361185 456.82292104 34.66401275 458.46803962 34.66816989 460.11314537 C34.69687441 472.61251123 33.77849918 484.33444838 29.33886719 496.13085938 C29.03432617 496.94176025 28.72978516 497.75266113 28.41601562 498.58813477 C20.7517194 518.12053592 5.94539601 534.90880094 -13.03613281 544.06835938 C-39.25069906 555.39758368 -67.10549771 551.93790543 -94.91113281 550.31835938 C-96.07599213 550.25096558 -97.24085144 550.18357178 -98.44100952 550.11413574 C-101.80245007 549.91742158 -105.16348937 549.71509131 -108.52441406 549.50976562 C-109.53698273 549.44928543 -110.54955139 549.38880524 -111.59280396 549.32649231 C-112.54388031 549.26652573 -113.49495667 549.20655914 -114.47485352 549.14477539 C-115.29862991 549.09370132 -116.12240631 549.04262726 -116.97114563 548.99000549 C-118.91428046 548.81684481 -120.85076302 548.5650214 -122.77932739 548.27108765 C-127.46023513 547.63962833 -132.11677599 547.37152774 -136.83129883 547.12329102 C-137.83751785 547.06783615 -138.84373688 547.01238129 -139.88044739 546.95524597 C-143.2043317 546.77270774 -146.52843069 546.59442282 -149.85253906 546.41601562 C-152.1920696 546.2880323 -154.53158248 546.15972565 -156.87107849 546.03111267 C-163.04568888 545.69230109 -169.22047628 545.35684215 -175.39532471 545.0223999 C-186.36043985 544.42828363 -197.32531256 543.82975856 -208.29003906 543.22851562 C-210.04717633 543.13239581 -210.04717633 543.13239581 -211.83981133 543.03433418 C-226.3990317 542.23630718 -240.9534689 541.4053607 -255.49732971 540.36048889 C-266.20929213 539.59831466 -276.93254939 539.23118609 -287.66625977 538.92944336 C-290.0448848 538.7886389 -292.36377343 538.56038657 -294.72747803 538.27880859 C-299.30431923 537.76368335 -303.87099149 537.45457756 -308.46948242 537.21508789 C-309.72554039 537.14653595 -309.72554039 537.14653595 -311.00697327 537.07659912 C-312.81230176 536.97837856 -314.61769301 536.88130597 -316.42313957 536.78528023 C-319.30856382 536.63170048 -322.19379264 536.47481812 -325.07899475 536.31712341 C-332.25825818 535.92535709 -339.43779398 535.53868882 -346.61737061 535.15270996 C-389.87131509 532.8265894 -389.87131509 532.8265894 -406.49456787 531.47265625 C-419.36465079 530.42915744 -432.2547847 529.69441596 -445.14458466 528.94339371 C-447.31862684 528.81646221 -449.49260157 528.68842379 -451.66656494 528.56015015 C-468.38335139 527.57544939 -485.10195219 526.65599725 -501.82910156 525.86523438 C-502.55944044 525.83069593 -503.28977932 525.79615749 -504.04224968 525.76057243 C-511.07112136 525.42926176 -518.10029639 525.10554246 -525.13013554 524.79541588 C-527.07637369 524.7092446 -529.02254004 524.62145638 -530.96870422 524.53363037 C-533.32898502 524.42736071 -535.68940321 524.32408147 -538.04997253 524.22442627 C-539.09389664 524.17719421 -540.13782074 524.12996216 -541.21337891 524.08129883 C-542.11414154 524.04228958 -543.01490417 524.00328033 -543.94296265 523.96308899 C-546.59863281 523.75585938 -546.59863281 523.75585938 -549.38315868 523.26898479 C-552.50824914 522.7702828 -555.54320501 522.51107239 -558.70188904 522.33862305 C-559.90324493 522.27138031 -561.10460083 522.20413757 -562.34236145 522.13485718 C-563.64694809 522.06521759 -564.95153473 521.995578 -566.2956543 521.92382812 C-567.69404701 521.84678078 -569.0924231 521.76943114 -570.49078369 521.69180298 C-573.49444592 521.52567184 -576.49821108 521.361602 -579.50207329 521.1991272 C-584.25557554 520.94193494 -589.0087922 520.67971218 -593.76197815 520.41674805 C-602.99554122 519.90657076 -612.22935848 519.40109608 -621.46322632 518.89646912 C-633.21308267 518.25433763 -644.96288579 517.61130754 -656.71232277 516.96154118 C-661.43359214 516.70062982 -666.15501271 516.44271582 -670.87657344 516.18713379 C-673.81823308 516.02729509 -676.7597491 515.86492452 -679.70123291 515.70188522 C-681.70716746 515.59147118 -683.7132696 515.48411509 -685.71937561 515.37686157 C-691.40633903 515.05929415 -696.96340988 514.60459782 -702.59863281 513.75585938 C-705.76631293 513.49040217 -708.93777578 513.31441886 -712.11157227 513.13916016 C-713.04470434 513.0852521 -713.97783642 513.03134405 -714.93924522 512.97580242 C-718.02997633 512.79802063 -721.12093268 512.62454364 -724.21191406 512.45117188 C-726.39851644 512.32645235 -728.58510576 512.2015037 -730.77168274 512.07633972 C-736.61111628 511.74294196 -742.45076628 511.41349134 -748.29047394 511.08493423 C-751.9122725 510.88079514 -755.53399822 510.67541065 -759.15570068 510.46957397 C-787.30808229 508.86956664 -815.46150386 507.31249984 -843.62380981 505.89752197 C-863.75580254 504.88364231 -883.86962961 503.66230998 -903.98214722 502.31840515 C-909.99432489 501.91933578 -916.00764606 501.5477052 -922.02264404 501.19372559 C-926.20972115 500.94678038 -930.39631059 500.69206472 -934.58288574 500.43676758 C-936.55573618 500.31842051 -938.52879801 500.20353392 -940.5020752 500.0925293 C-967.85856394 498.54867995 -990.70089292 492.62533543 -1010.59863281 472.75585938 C-1011.71238281 471.65951172 -1011.71238281 471.65951172 -1012.84863281 470.54101562 C-1025.11060373 457.68031565 -1030.5338211 441.8196546 -1033.03613281 424.56835938 C-1033.2461279 423.1728768 -1033.45650718 421.77745199 -1033.66723633 420.38208008 C-1035.54748194 407.75977337 -1037.10612018 395.09591937 -1038.64648438 382.4284668 C-1040.43180293 367.79098124 -1042.45078552 353.19093413 -1044.54370117 338.59448242 C-1045.80566198 329.74874662 -1046.95396209 320.90681989 -1047.90830994 312.0223999 C-1048.58987703 305.70485307 -1049.44242697 299.4200828 -1050.34863281 293.13085938 C-1052.24560324 279.69030925 -1053.93242302 266.22670214 -1055.59863281 252.75585938 C-1057.42894644 237.9614339 -1059.29956518 223.17762759 -1061.39355469 208.41796875 C-1061.80280607 205.53157466 -1062.20408585 202.64429647 -1062.59863281 199.75585938 C-1062.75549561 198.63836304 -1062.75549561 198.63836304 -1062.91552734 197.49829102 C-1066.23475829 171.46400109 -1063.81158937 146.75110081 -1048.09863281 125.19335938 C-1046.6258761 123.35865397 -1045.12795044 121.54369154 -1043.59863281 119.75585938 C-1042.99792969 119.04300781 -1042.39722656 118.33015625 -1041.77832031 117.59570312 C-1028.65778976 103.31079649 -1010.38996093 95.711303 -991.59863281 92.75585938 C-990.85097656 92.624375 -990.10332031 92.49289062 -989.33300781 92.35742188 C-983.14690653 91.39571705 -976.83859363 91.67025016 -970.59863281 91.75585938 C-968.92038135 95.11236229 -969.74177992 98.84258371 -969.97363281 102.50585938 C-970.01746094 103.30507813 -970.06128906 104.10429688 -970.10644531 104.92773438 C-970.36329722 109.26567766 -970.78462301 113.4788587 -971.59863281 117.75585938 C-972.2325293 117.82579102 -972.86642578 117.89572266 -973.51953125 117.96777344 C-992.16509522 120.07411939 -1011.61117605 122.48710862 -1024.44238281 137.98242188 C-1036.46687048 155.39524128 -1039.02814733 171.18900818 -1036.41113281 192.00585938 C-1036.21583984 193.62355225 -1036.21583984 193.62355225 -1036.01660156 195.27392578 C-1035.63838271 198.38692484 -1035.25286349 201.49893268 -1034.86480713 204.61071777 C-1034.57832923 206.91948925 -1034.29582494 209.22872244 -1034.01416016 211.53808594 C-1031.28432524 234.43210051 -1031.28432524 234.43210051 -1028.03613281 257.25585938 C-1026.27279918 268.52214476 -1024.92659794 279.8409464 -1023.5349884 291.15782166 C-1021.86208866 304.75793295 -1020.16036231 318.35450871 -1018.45385742 331.95043945 C-1018.14663957 334.39859931 -1017.8394294 336.84676013 -1017.53222656 339.29492188 C-1017.37680893 340.53294052 -1017.2213913 341.77095917 -1017.06126404 343.04649353 C-1016.13086694 350.46977243 -1015.21107114 357.89423761 -1014.30140877 365.32008076 C-1013.60196607 371.02787535 -1012.8960503 376.73484793 -1012.18600273 382.44133282 C-1011.75895359 385.87617385 -1011.33514949 389.31134171 -1010.91955566 392.74758911 C-1007.2904905 429.21231907 -1007.2904905 429.21231907 -987.28613281 458.75585938 C-969.06079007 472.30803731 -947.10139124 472.37885845 -925.36979294 473.5169754 C-921.7080665 473.71128148 -918.04707402 473.91857893 -914.38598633 474.12451172 C-907.96681492 474.48400038 -901.54727489 474.83613856 -895.12744141 475.18359375 C-878.87116189 476.06396357 -862.61667653 476.97676177 -846.36209869 477.88791847 C-840.56470318 478.21256172 -834.76712702 478.53369122 -828.96936989 478.85180855 C-811.75863981 479.79705001 -794.55837782 480.76545496 -777.37214661 482.09317017 C-769.05680148 482.73491347 -760.74130397 483.23365672 -752.41177368 483.64697266 C-740.73490633 484.22803935 -729.07150018 484.90032061 -717.41113281 485.75585938 C-705.8963995 486.59198474 -694.38105184 487.1711116 -682.84863281 487.69335938 C-666.8710422 488.41918481 -650.91042626 489.31174269 -634.94812012 490.31756592 C-621.16109426 491.18543114 -607.372187 492.0029204 -593.57910156 492.76757812 C-591.99782805 492.85544625 -590.41655465 492.94331654 -588.83528137 493.03118896 C-582.56624843 493.37911456 -576.29719618 493.72659823 -570.02774048 494.0668335 C-541.88569007 495.59449369 -541.88569007 495.59449369 -528.68457031 496.72070312 C-510.85986047 498.23316649 -492.98827944 499.1040108 -475.12866211 500.09442139 C-470.33077805 500.3610489 -465.53307054 500.63081175 -460.73535156 500.90039062 C-454.14689281 501.27030208 -447.55839839 501.63956418 -440.96984482 502.00778294 C-415.81387147 503.41371496 -390.66168938 504.85040977 -365.51681519 506.44515991 C-358.64976388 506.88015713 -351.78242663 507.31058211 -344.91503906 507.74023438 C-344.22607607 507.78334433 -343.53711308 507.82645428 -342.82727242 507.87087059 C-329.80070338 508.6853832 -316.77306447 509.48129838 -303.74389648 510.25320435 C-301.65303888 510.3771496 -299.56221663 510.5016931 -297.47143555 510.62692261 C-286.94352497 511.25650621 -276.41778951 511.82205472 -265.87988281 512.25585938 C-256.48920314 512.64490168 -247.12293467 513.21560704 -237.74853516 513.88479614 C-216.21087402 515.41278529 -194.65711378 516.63111528 -173.09863281 517.81835938 C-172.31325134 517.8616827 -171.52786987 517.90500603 -170.71868896 517.94964218 C-155.69130811 518.7785568 -140.6635859 519.60069569 -125.63378906 520.38476562 C-123.21417832 520.51148593 -120.79457131 520.63827685 -118.37496948 520.76516724 C-116.90895359 520.84177926 -115.44290966 520.91785677 -113.97683716 520.99337769 C-106.31528392 521.38976931 -98.678508 521.89551157 -91.03881836 522.60449219 C-80.44324269 523.57970901 -69.88490043 524.01679805 -59.24832153 524.1083374 C-57.67604107 524.12309384 -56.10380452 524.14422137 -54.53170776 524.17242432 C-37.17028616 524.45660415 -21.62476002 520.2094648 -8.66113281 508.00976562 C5.22399221 492.83605892 7.71235817 474.6908968 7.6620636 455.03800964 C7.66508819 453.35557347 7.66897921 451.67313866 7.67365617 449.99070626 C7.68390531 445.39072168 7.68176223 440.7908153 7.67747557 436.19082439 C7.67500273 431.22068822 7.68402945 426.2505706 7.69151306 421.28044128 C7.70424666 411.55226096 7.70605541 401.82410826 7.7037128 392.095921 C7.70192795 384.18630762 7.70368286 376.27670261 7.70793724 368.36709023 C7.70853243 367.24027535 7.70912762 366.11346047 7.70974084 364.95249969 C7.71095263 362.6631808 7.71216676 360.37386191 7.71338322 358.08454303 C7.72425364 336.62674145 7.72209865 315.16895559 7.71599837 293.71115313 C7.71082989 274.09538274 7.72208375 254.47966202 7.74109659 234.86390146 C7.76048432 214.70631971 7.76872934 194.54876145 7.76497334 174.39117032 C7.76306269 163.08069652 7.76553561 151.77026499 7.77968788 140.45979881 C7.79161456 130.83082966 7.79299212 121.20192879 7.78089771 111.57295867 C7.77501805 106.66388249 7.77388434 101.75493114 7.78590012 96.84586334 C7.79678922 92.34464459 7.79361972 87.84365444 7.77963843 83.34244625 C7.77699982 81.72140623 7.77933154 80.10034812 7.7873743 78.47932591 C7.87597677 59.27573766 4.50208383 42.14430856 -9.35253906 27.86914062 C-21.53784211 16.40435984 -34.99336004 12.36037709 -51.47363281 12.38085938 C-52.69655029 12.38102051 -53.91946777 12.38118164 -55.17944336 12.38134766 C-66.93227426 12.52488676 -78.24193806 14.19814243 -89.78759766 16.26855469 C-93.75315544 16.9560007 -97.73162933 17.49836402 -101.72363281 18.00585938 C-102.88121094 18.15539062 -104.03878906 18.30492187 -105.23144531 18.45898438 C-106.01261719 18.55695312 -106.79378906 18.65492188 -107.59863281 18.75585938 C-109.32025914 15.96596629 -110.7667968 13.35372809 -112.03613281 10.31835938 C-113.5724721 6.8155058 -115.46666992 3.91704573 -117.59863281 0.75585938 C-117.59863281 0.09585938 -117.59863281 -0.56414063 -117.59863281 -1.24414062 C-118.58863281 -1.57414063 -119.57863281 -1.90414062 -120.59863281 -2.24414062 C-121.78613281 -4.30664063 -121.78613281 -4.30664063 -122.59863281 -6.24414062 C-118.89344042 -8.54434797 -115.05997576 -8.81317713 -110.81738281 -9.20898438 C-109.67459114 -9.32588371 -109.67459114 -9.32588371 -108.50871277 -9.44514465 C-106.0392968 -9.69715787 -103.56901154 -9.93926587 -101.09863281 -10.18164062 C-97.7191128 -10.52347415 -94.34034042 -10.87213895 -90.96191406 -11.22460938 C-90.13778519 -11.31038239 -89.31365631 -11.3961554 -88.46455383 -11.48452759 C-82.37034239 -12.1316006 -76.3304805 -12.98012993 -70.28613281 -13.99414062 C-46.78751495 -17.79844318 -19.36733989 -15.07268847 0 0 Z " fill="#FCFCFC" transform="translate(1282.5986328125,547.244140625)"/>
<path d="M0 0 C1.0725 0.763125 2.145 1.52625 3.25 2.3125 C13.85915316 12.68053604 18.66510927 25.62198864 21 40 C21 45.28 21 50.56 21 56 C4.83 56 -11.34 56 -28 56 C-28.66 51.05 -29.32 46.1 -30 41 C-33.67850053 33.89963852 -37.04512665 30.01343921 -44.71850586 27.41894531 C-48.09294467 26.79930518 -51.45930804 26.81672043 -54.87890625 26.796875 C-55.64621567 26.79117493 -56.41352509 26.78547485 -57.2040863 26.77960205 C-58.82883332 26.77016836 -60.45359932 26.76362455 -62.07836914 26.75976562 C-64.52981393 26.7501285 -66.98039485 26.71911942 -69.43164062 26.6875 C-84.31085645 26.42796559 -84.31085645 26.42796559 -97.5625 32.4375 C-101.92725307 37.02608657 -102.34102986 40.65549022 -102.3125 46.875 C-102.32861328 47.56980469 -102.34472656 48.26460937 -102.36132812 48.98046875 C-102.36581016 53.74039046 -101.54192304 56.98173759 -99 61 C-93.12456486 65.52898125 -88.404514 66.21230879 -81.1875 66.5 C-80.2284375 66.54205566 -79.269375 66.58411133 -78.28125 66.62744141 C-70.77788764 66.92663462 -63.27763953 67.06940328 -55.76953125 67.1796875 C-53.73608119 67.21271928 -51.70263395 67.24592442 -49.66918945 67.27929688 C-45.61695514 67.34553613 -41.56503386 67.39333447 -37.51245117 67.43164062 C-19.46989364 67.67341363 -0.37179636 69.00021711 13.484375 82.2265625 C26.42047104 97.36312849 27.97301914 114.93370734 27 134 C25.61588945 148.87222142 20.96510317 162.96691251 9.6328125 173.12109375 C-1.75389745 182.05814058 -14.87817069 185.86546924 -29 188 C-29.65210449 188.10296387 -30.30420898 188.20592773 -30.97607422 188.31201172 C-62.71561768 193.16846108 -103.32801713 193.55689052 -131 175 C-143.52242003 165.15734415 -149.53464696 151.43705325 -152 136 C-152.29711571 132.99781728 -152.46310956 129.99760856 -152.6015625 126.984375 C-152.64192627 126.21077637 -152.68229004 125.43717773 -152.72387695 124.64013672 C-152.8212071 122.76035754 -152.9113715 120.88020953 -153 119 C-146.03996553 118.97473162 -139.0799428 118.95716778 -132.11987305 118.94506836 C-129.75007688 118.94002659 -127.38028385 118.93319335 -125.01049805 118.92456055 C-121.61245961 118.9124881 -118.21446215 118.90677029 -114.81640625 118.90234375 C-113.74975235 118.89718246 -112.68309845 118.89202118 -111.5841217 118.88670349 C-110.11270973 118.88659019 -110.11270973 118.88659019 -108.61157227 118.88647461 C-107.30918358 118.88314369 -107.30918358 118.88314369 -105.98048401 118.87974548 C-104 119 -104 119 -103 120 C-102.70087977 122.01684039 -102.43610463 124.03881183 -102.1875 126.0625 C-101.21208164 132.46938462 -100.30091993 138.08081911 -95.27734375 142.5234375 C-86.215443 148.75687221 -75.64430244 148.34567535 -65.08154297 148.31567383 C-62.76872048 148.31252548 -60.45719535 148.33599262 -58.14453125 148.36132812 C-42.49859438 148.58833828 -42.49859438 148.58833828 -28.375 142.8125 C-23.94676084 137.56853258 -22.38039315 132.0843421 -22.65234375 125.23828125 C-23.48990824 119.8458717 -25.66975868 116.12331489 -29.8125 112.625 C-36.68335705 109.12221013 -42.75196391 108.69817672 -50.33984375 108.65625 C-52.3824063 108.62789894 -54.42496813 108.59949532 -56.4675293 108.57104492 C-57.52579926 108.55979584 -58.58406921 108.54854675 -59.67440796 108.53695679 C-121.95710661 107.8315619 -121.95710661 107.8315619 -139.8125 91.8125 C-150.3107116 80.55902138 -152.51405145 65.40377796 -152.375 50.6875 C-152.38660156 49.47126953 -152.39820313 48.25503906 -152.41015625 47.00195312 C-152.36228596 31.97866017 -149.58377426 17.30481528 -139.8828125 5.40234375 C-109.29337156 -24.62062606 -33.26609673 -24.69058044 0 0 Z " fill="#020202" transform="translate(830,622)"/>
</svg>
